<svg xmlns="http://www.w3.org/2000/svg" viewBox="0 0 112 112"><defs><linearGradient id="a" x2="112" y1="58" y2="58" gradientTransform="matrix(1 0 0 -1 0 114)" gradientUnits="userSpaceOnUse"><stop offset="0" stop-color="#00a4e8"/><stop offset="1" stop-color="#4f46e5"/></linearGradient></defs><rect width="112" height="112" rx="20" fill="url(#a)"/><path d="M40,56h0M56,56h0M72,56h0" fill="none" stroke="#fafafa" stroke-linecap="round" stroke-linejoin="round" stroke-width="6"/><path d="M80,92c4.93,0,8.92-4.6,8.92-10.28,0-9-.4-15,5.77-22.08a5.7,5.7,0,0,0,0-7.28c-6.17-7.1-5.77-13.08-5.77-22.08C88.92,24.6,84.93,20,80,20M32,92c-4.93,0-8.92-4.6-8.92-10.28,0-9,.4-15-5.77-22.08a5.7,5.7,0,0,1,0-7.28c6-7,5.77-13,5.77-22.08C23.08,24.6,27.07,20,32,20" fill="none" stroke="#fafafa" stroke-linecap="round" stroke-linejoin="round" stroke-width="6"/></svg>
